<svg id="Layer_1" data-name="Layer 1" xmlns="http://www.w3.org/2000/svg" width="24.76" height="24.36" viewBox="0 0 24.76 24.36"><defs><style>.cls-1{fill:#2e3191;}.cls-1,.cls-2,.cls-3,.cls-4{stroke:#2e3191;stroke-linecap:round;stroke-linejoin:round;stroke-width:1.13px;}.cls-2,.cls-3{fill:none;}.cls-3{stroke-dasharray:4.01 4.01;}.cls-4{fill:#fff;}</style></defs><rect class="cls-1" x="3.87" y="3.87" width="11.1" height="11.1"/><polyline class="cls-2" points="18.27 15.37 18.27 18.27 15.47 18.27"/><line class="cls-3" x1="11.47" y1="18.27" x2="5.37" y2="18.27"/><polyline class="cls-2" points="3.37 18.27 0.57 18.27 0.57 15.37"/><line class="cls-3" x1="0.57" y1="11.37" x2="0.57" y2="5.37"/><polyline class="cls-2" points="0.57 3.37 0.57 0.57 3.37 0.57"/><line class="cls-3" x1="7.37" y1="0.57" x2="13.47" y2="0.57"/><polyline class="cls-2" points="15.47 0.57 18.27 0.57 18.27 3.37"/><line class="cls-3" x1="18.27" y1="7.37" x2="18.27" y2="13.37"/><path class="cls-4" d="M11.17,11.57a.59.59,0,0,1,.8-.8L23.87,16a.61.61,0,0,1,.3.7.55.55,0,0,1-.6.4l-5.2.9-.9,5.2a.55.55,0,0,1-.4.6.61.61,0,0,1-.7-.3Z"/></svg>