<svg id="Layer_1" data-name="Layer 1" xmlns="http://www.w3.org/2000/svg" viewBox="0 0 27.97 20.66">
  <defs>
    <style>.cls-1, .cls-3 {
      fill: #fff;
    }

    .cls-1, .cls-5 {
      stroke: #2e3191;
      stroke-linejoin: round;
      stroke-width: 1.13;
    }

    .cls-2, .cls-4 {
      fill: #2e3191;
    }

    .cls-4 {
      fill-rule: evenodd;
    }

    .cls-5 {
      fill: none;
      stroke-linecap: round;
    }</style>
  </defs>
  <rect class="cls-1" x="3.85" y="1.21" width="18.88" height="18.88"/>
  <path class="cls-2"
        d="M13.41,15.24a.67.67,0,0,1-.48-.2.76.76,0,0,1-.19-.74l3.33-5.64,3.24,3.24-5.59,3.29A1.34,1.34,0,0,1,13.41,15.24Z"/>
  <rect class="cls-3" x="16.7" y="4.81" width="9.46" height="3.44" transform="translate(1.66 17.07) rotate(-45)"/>
  <path class="cls-2"
        d="M23.56,2.77,25.19,4.4l-5.88,5.89L17.68,8.66l5.88-5.89m0-1.6L16.07,8.66l3.24,3.24L26.8,4.4,23.56,1.17Z"/>
  <path class="cls-4"
        d="M27.31.73,27.24.65a2.24,2.24,0,0,0-3.16,0L22.69,2l3.23,3.24,1.39-1.39A2.22,2.22,0,0,0,27.31.73Z"/>
  <line class="cls-5" x1="0.57" y1="15.24" x2="11.63" y2="15.24"/>
</svg>
